<!-- Generated by IcoMoon.io -->
<svg version="1.1" xmlns="http://www.w3.org/2000/svg" width="576" height="448" viewBox="0 0 576 448">
<title></title>
<g id="icomoon-ignore">
</g>
<path fill="#000" d="M26.804 293.65c22.854 0 22.854-34.825 0-34.825s-22.854 34.825 0 34.825zM427.564 277.87c-21.494-28.023-42.443-56.591-66.929-82.165l-34.009 38.090c-29.928 34.009-83.526 33.192-112.637-1.633-20.678-25.030-20.678-60.944 0.544-85.702l48.157-56.046c-16.869-8.706-37.274-5.713-55.502-5.713-16.052 0-31.56 6.53-42.987 17.956l-42.987 42.987h-42.171v148.006c11.971 0 22.854-1.633 32.376 7.618l80.805 79.444c16.596 16.052 38.090 30.2 61.76 30.2 12.243 0 25.302-4.081 34.009-12.787 20.405 7.074 44.075-4.353 50.333-25.302 13.059 1.089 25.030-2.993 34.553-11.971 6.258-5.713 14.42-17.14 13.603-26.119 2.449 2.449 8.434 2.721 11.699 2.721 32.376 0 49.245-34.009 29.383-59.584zM470.823 293.65h26.119v-139.3h-25.302l-42.715-48.973c-11.427-13.059-28.567-20.678-45.98-20.678h-45.436c-15.236 0-29.928 6.802-39.722 18.229l-56.863 66.113c-10.067 11.971-10.067 28.839-0.272 40.81 15.508 18.501 44.075 18.773 60.128 0.816l52.51-59.311c12.516-13.876 35.369-0.816 29.656 16.869 10.339 11.971 21.493 23.67 31.56 35.641 13.603 16.869 26.663 34.553 39.995 51.693 8.434 10.883 14.692 23.943 16.324 38.090zM549.179 293.65c22.854 0 22.854-34.825 0-34.825s-22.854 34.825 0 34.825zM601.416 136.938v174.125c0 9.523-7.889 17.412-17.412 17.412h-118.079c-9.794 23.67-31.288 39.45-56.319 42.987-11.699 17.14-29.656 30.2-49.788 34.553-14.964 19.045-39.178 30.472-63.392 28.839-44.892 25.302-95.497 3.265-128.961-29.656l-78.084-76.724h-97.401c-9.523 0-17.412-7.889-17.412-17.412v-182.831c0-9.523 7.889-17.412 17.412-17.412h114.541c31.56-31.56 53.326-60.944 100.667-60.944h31.832c17.685 0 34.825 5.442 49.245 15.236 14.42-9.794 31.56-15.236 49.245-15.236h45.436c51.693 0 73.187 33.736 104.475 69.65h96.585c9.523 0 17.412 7.889 17.412 17.412z"></path>
</svg>
